<?xml version="1.0" standalone="no"?>
<!DOCTYPE svg PUBLIC "-//W3C//DTD SVG 20010904//EN"
 "http://www.w3.org/TR/2001/REC-SVG-20010904/DTD/svg10.dtd">
<svg version="1.0" xmlns="http://www.w3.org/2000/svg"
 width="171.000000pt" height="171.000000pt" viewBox="0 0 171.000000 171.000000"
 preserveAspectRatio="xMidYMid meet">
<metadata>
Created by potrace 1.11, written by Peter Selinger 2001-2013
</metadata>
<g transform="translate(0.000000,171.000000) scale(0.100000,-0.100000)"
fill="#000000" stroke="none">
<path d="M882 1630 c4 -29 3 -30 -36 -31 -23 -1 -44 -1 -48 0 -5 0 -8 -2 -8
-6 0 -5 -21 -9 -48 -11 -46 -2 -169 -53 -184 -76 -5 -7 -8 -7 -8 -1 0 6 -3 6
-8 0 -4 -6 -19 -18 -34 -27 -20 -13 -28 -15 -36 -5 -6 7 -25 20 -44 31 l-33
18 38 -32 c44 -37 46 -49 12 -74 -13 -10 -22 -23 -19 -28 3 -4 0 -7 -8 -6 -7
2 -12 -5 -12 -14 1 -11 -4 -14 -13 -11 -12 5 -14 1 -8 -18 4 -18 4 -20 -4 -10
-8 12 -12 9 -23 -15 -7 -16 -19 -35 -26 -43 -7 -7 -11 -20 -8 -28 3 -8 2 -12
-3 -9 -7 5 -27 -43 -35 -84 -2 -8 -6 -22 -9 -30 -4 -8 -8 -40 -9 -70 -2 -41 0
-54 10 -52 8 1 11 -2 7 -8 -3 -6 -10 -8 -15 -5 -16 10 -7 -60 9 -73 9 -8 10
-11 4 -7 -9 4 -13 -2 -13 -17 0 -36 11 -68 21 -62 5 3 6 -2 3 -10 -3 -9 -3
-24 2 -33 9 -21 11 -29 13 -44 0 -5 6 -7 13 -3 6 4 9 3 5 -2 -7 -13 16 -64 42
-91 12 -13 19 -23 15 -23 -3 0 -1 -7 6 -15 7 -8 16 -12 21 -9 5 3 6 -2 3 -10
-4 -11 2 -19 17 -25 13 -5 20 -10 15 -10 -13 -1 69 -71 83 -71 5 0 11 -6 14
-12 3 -10 8 -9 23 2 18 14 18 14 5 -3 -12 -15 -9 -21 12 -18 4 0 7 -4 7 -10 0
-6 7 -8 16 -5 8 3 12 2 9 -4 -3 -6 -1 -10 6 -10 7 0 2 -12 -12 -28 -13 -15
-33 -38 -44 -51 l-20 -23 45 7 c25 4 69 18 99 31 34 15 64 22 83 19 22 -4 28
-2 22 7 -5 9 -2 9 10 -1 10 -8 36 -13 64 -12 26 1 68 2 95 3 34 2 47 6 48 18
0 8 3 10 5 3 7 -15 60 -1 142 39 36 17 59 34 56 40 -4 6 -2 8 3 5 11 -7 58 28
58 43 0 5 4 12 9 17 5 5 6 3 2 -4 -14 -25 7 -12 41 24 63 68 93 119 80 132 -9
10 -8 11 4 6 25 -9 71 110 73 188 1 20 4 37 8 37 4 0 6 12 5 28 -2 20 -8 28
-25 30 -25 4 -28 -7 -9 -27 10 -11 10 -13 0 -7 -8 4 -13 2 -14 -6 0 -7 -2 -22
-4 -33 -2 -10 2 -26 8 -34 8 -10 8 -13 1 -8 -13 8 -27 -19 -18 -34 3 -5 0 -9
-6 -9 -6 0 -10 -6 -8 -12 1 -7 -4 -24 -11 -37 -11 -19 -11 -22 1 -16 7 3 5 0
-4 -8 -10 -8 -18 -20 -18 -26 0 -7 -5 -17 -10 -24 -6 -7 -17 -21 -24 -32 -13
-18 -13 -16 -7 20 4 22 5 58 3 80 -4 42 -4 83 -1 200 1 39 0 84 -3 101 -8 42
-58 154 -70 154 -5 0 -6 5 -3 10 3 6 -1 13 -9 16 -9 3 -16 10 -16 15 0 15 -43
59 -57 59 -8 0 -11 5 -8 10 3 6 1 10 -6 10 -6 0 -17 7 -23 14 -6 8 -18 16 -26
18 -8 2 -19 8 -25 15 -13 16 -126 53 -118 39 3 -6 0 -5 -8 2 -7 6 -23 12 -34
12 -12 0 -32 12 -46 26 -13 15 -44 40 -68 55 -41 26 -40 37 3 30 4 -1 15 4 24
11 13 11 14 11 7 -1 -6 -11 -4 -13 7 -8 13 4 15 0 11 -24 -2 -17 0 -29 7 -29
6 0 8 5 4 12 -4 7 -3 8 4 4 18 -11 37 4 21 16 -10 7 -7 7 8 3 15 -4 29 1 42
14 12 12 23 21 26 20 29 -4 13 13 -46 49 l-71 43 4 -31z m62 -50 c-6 -6 -10
-3 -10 10 0 13 4 16 10 10 7 -7 7 -13 0 -20z m-289 -50 c3 -6 -1 -7 -9 -4 -18
7 -21 14 -7 14 6 0 13 -4 16 -10z m89 -40 c37 -49 40 -65 12 -66 -55 -3 -158
-39 -182 -63 -30 -30 -87 -116 -121 -181 l-23 -45 0 35 c0 19 12 62 26 95 15
33 34 81 43 107 10 26 23 53 29 61 7 8 8 17 4 21 -4 4 -2 7 3 6 21 -5 36 0 30
10 -4 6 1 7 11 3 13 -5 15 -3 9 7 -5 8 -4 11 2 7 6 -4 28 2 49 12 40 19 65 29
74 30 3 0 18 -17 34 -39z m-265 -100 c6 8 12 12 15 9 3 -2 -14 -43 -37 -89
-37 -75 -42 -93 -45 -164 -9 -254 -4 -314 31 -348 12 -11 16 -17 8 -13 -9 5
-12 3 -9 -6 3 -8 10 -13 16 -12 5 1 8 -6 5 -17 -3 -12 1 -22 11 -26 9 -3 16
-14 16 -24 0 -10 6 -20 13 -23 9 -3 6 -16 -11 -46 -12 -22 -18 -41 -13 -41 5
0 12 4 15 9 3 5 18 11 33 14 20 4 42 -5 90 -38 34 -24 68 -45 74 -47 8 -3 6
-13 -6 -31 -17 -27 -57 -56 -54 -40 3 20 -2 27 -11 13 -8 -13 -10 -13 -10 1 0
19 -26 33 -42 22 -7 -3 -8 -1 -4 6 4 6 0 14 -11 18 -10 3 -45 34 -77 67 -33
34 -57 53 -53 43 4 -11 3 -16 -4 -12 -6 4 -8 13 -5 21 3 7 -1 19 -8 26 -7 7
-19 27 -26 45 -8 17 -17 30 -21 27 -4 -2 -6 2 -6 9 2 19 -25 107 -32 107 -13
0 -13 253 -1 268 2 1 4 7 5 12 1 6 3 11 4 13 2 1 4 13 7 26 2 14 9 30 15 37 6
7 7 19 3 25 -4 7 -3 9 2 6 6 -3 15 7 22 22 7 15 28 46 47 68 24 28 33 47 29
60 -5 15 -4 16 5 3 10 -13 12 -13 20 0z m131 -64 c0 -2 -8 -10 -17 -17 -16
-13 -17 -12 -4 4 13 16 21 21 21 13z m491 -29 c-10 -9 -11 -8 -5 6 3 10 9 15
12 12 3 -3 0 -11 -7 -18z m-420 -34 c13 -16 12 -17 -3 -4 -10 7 -18 15 -18 17
0 8 8 3 21 -13z m507 -78 c-3 -3 -9 2 -12 12 -6 14 -5 15 5 6 7 -7 10 -15 7
-18z m63 8 c13 -16 12 -17 -3 -4 -10 7 -18 15 -18 17 0 8 8 3 21 -13z m-761 3
c0 -3 -4 -8 -10 -11 -5 -3 -10 -1 -10 4 0 6 5 11 10 11 6 0 10 -2 10 -4z m650
-2 c0 -8 -19 -13 -24 -6 -3 5 1 9 9 9 8 0 15 -2 15 -3z m-595 -32 c-3 -3 -11
0 -18 7 -9 10 -8 11 6 5 10 -3 15 -9 12 -12z m125 14 c0 -3 -4 -8 -10 -11 -5
-3 -10 -1 -10 4 0 6 5 11 10 11 6 0 10 -2 10 -4z m-165 -54 c-3 -3 -11 0 -18
7 -9 10 -8 11 6 5 10 -3 15 -9 12 -12z m745 4 c0 -2 -6 -9 -14 -15 -11 -9 -16
-9 -22 0 -4 7 -3 9 4 5 6 -3 13 -2 17 4 6 10 15 14 15 6z m71 -23 c13 -16 12
-17 -3 -4 -17 13 -22 21 -14 21 2 0 10 -8 17 -17z m-106 -53 c3 -6 -1 -7 -9
-4 -18 7 -21 14 -7 14 6 0 13 -4 16 -10z m116 -17 c13 -16 12 -17 -3 -4 -17
13 -22 21 -14 21 2 0 10 -8 17 -17z m-81 -38 c7 -9 8 -15 2 -15 -5 0 -12 7
-16 15 -3 8 -4 15 -2 15 2 0 9 -7 16 -15z m-710 1 c0 -2 -8 -10 -17 -17 -16
-13 -17 -12 -4 4 13 16 21 21 21 13z m44 -4 c2 -4 -4 -8 -14 -8 -10 0 -16 4
-14 8 3 4 9 8 14 8 5 0 11 -4 14 -8z m701 -1 c3 -5 2 -12 -3 -15 -5 -3 -9 1
-9 9 0 17 3 19 12 6z m-635 -25 c0 -2 -8 -10 -17 -17 -16 -13 -17 -12 -4 4 13
16 21 21 21 13z m640 -12 c0 -8 -19 -13 -24 -6 -3 5 1 9 9 9 8 0 15 -2 15 -3z
m40 2 c0 -2 -7 -7 -16 -10 -8 -3 -12 -2 -9 4 6 10 25 14 25 6z m-643 -21 c0
-8 -4 -15 -9 -15 -10 0 -11 14 -1 23 9 10 10 9 10 -8z m-162 -13 c-3 -3 -11 0
-18 7 -9 10 -8 11 6 5 10 -3 15 -9 12 -12z m760 -11 c3 -5 2 -12 -3 -15 -5 -3
-9 1 -9 9 0 17 3 19 12 6z m-535 -19 c0 -4 -10 -9 -22 -9 -18 -2 -20 0 -8 7
18 12 30 13 30 2z m-67 -17 c-3 -9 -8 -14 -10 -11 -3 3 -2 9 2 15 9 16 15 13
8 -4z m23 -40 c-1 -8 -5 -17 -8 -21 -5 -4 -4 16 1 34 3 9 9 -1 7 -13z m-105
-52 c13 -16 12 -17 -3 -4 -10 7 -18 15 -18 17 0 8 8 3 21 -13z m-273 -18 c-3
-3 -9 2 -12 12 -6 14 -5 15 5 6 7 -7 10 -15 7 -18z m985 -131 c6 -15 0 -27
-23 -48 -17 -15 -29 -30 -26 -34 2 -4 -4 -8 -14 -8 -18 0 -18 2 1 37 10 21 21
57 25 81 9 67 17 77 24 33 3 -22 9 -49 13 -61z m-99 -25 c-18 -36 -18 -54 2
-73 14 -15 14 -16 0 -16 -9 0 -16 -4 -16 -9 0 -5 -9 -11 -21 -14 -12 -3 -18
-10 -14 -16 4 -7 0 -8 -11 -4 -13 5 -15 3 -9 -7 5 -8 4 -11 -3 -7 -12 8 -44
-2 -38 -12 2 -3 -6 -7 -17 -8 -37 -2 -116 -22 -137 -33 -11 -6 -20 -7 -20 -2
0 4 -21 7 -47 6 -70 -2 -78 4 -51 33 27 30 85 72 74 55 -5 -8 5 -10 36 -6 24
4 46 11 49 16 4 6 11 8 17 4 6 -3 31 3 55 13 25 11 47 17 49 13 2 -4 21 11 43
32 22 22 34 36 26 31 -10 -6 -12 -4 -7 4 5 7 11 10 14 7 10 -11 31 15 25 32
-4 14 -3 14 5 3 8 -11 6 -23 -4 -42z m106 -39 c-8 -5 -19 -10 -25 -10 -5 0 -3
5 5 10 8 5 20 10 25 10 6 0 3 -5 -5 -10z m-315 -20 c3 -5 1 -10 -4 -10 -6 0
-11 5 -11 10 0 6 2 10 4 10 3 0 8 -4 11 -10z m-111 -158 c2 -4 -4 -8 -14 -8
-10 0 -16 4 -14 8 3 4 9 8 14 8 5 0 11 -4 14 -8z"/>
<path d="M377 249 c-13 -8 -17 -24 -17 -74 0 -90 3 -95 61 -95 36 0 49 4 50
15 1 8 2 23 3 33 1 12 -8 18 -28 20 -18 2 -26 0 -21 -7 3 -6 1 -11 -4 -11 -6
0 -10 19 -10 43 1 23 3 34 6 25 5 -22 48 -24 56 -4 8 20 -3 56 -17 57 -6 0
-22 2 -36 4 -14 2 -33 -1 -43 -6z"/>
<path d="M494 251 c-2 -2 -4 -42 -4 -88 0 -81 1 -83 24 -83 19 0 26 6 29 28
l4 27 2 -27 c1 -22 6 -28 25 -28 23 0 24 2 25 85 0 47 -3 85 -7 86 -32 3 -94
4 -98 0z"/>
<path d="M634 247 c-10 -6 -14 -29 -14 -87 0 -78 1 -80 24 -80 15 0 26 7 29
18 4 16 5 16 6 0 1 -12 9 -18 26 -18 25 0 25 1 25 85 0 49 -4 86 -10 86 -36 5
-73 3 -86 -4z m43 -79 c-3 -7 -5 -2 -5 12 0 14 2 19 5 13 2 -7 2 -19 0 -25z"/>
<path d="M763 253 c-17 -6 -16 -86 1 -133 12 -34 14 -35 72 -37 l60 -3 14 47
c26 91 18 143 -20 123 -12 -6 -17 -20 -15 -45 1 -20 -2 -38 -7 -41 -4 -3 -8
17 -8 45 0 41 -3 49 -17 46 -10 -2 -21 -4 -25 -4 -4 -1 -9 -25 -11 -53 l-3
-53 -2 51 c-2 51 -13 66 -39 57z"/>
<path d="M998 127 c-3 -13 -2 -32 2 -42 6 -18 7 -18 17 -1 9 16 11 16 16 2 10
-26 22 -18 22 14 0 47 -49 70 -57 27z m42 -7 c0 -5 -4 -10 -9 -10 -6 0 -13 5
-16 10 -3 6 1 10 9 10 9 0 16 -4 16 -10z"/>
<path d="M1087 113 c-17 -44 -16 -48 12 -34 13 7 22 8 26 1 16 -26 22 -5 8 30
-9 22 -19 40 -23 40 -5 0 -15 -17 -23 -37z m33 -3 c0 -5 -5 -10 -11 -10 -5 0
-7 5 -4 10 3 6 8 10 11 10 2 0 4 -4 4 -10z"/>
<path d="M1169 134 c-19 -23 -3 -64 26 -64 26 0 41 15 26 24 -5 4 -12 2 -16
-4 -9 -15 -25 -2 -25 22 0 17 4 19 28 13 22 -5 25 -4 15 6 -18 18 -40 19 -54
3z"/>
<path d="M1250 111 c0 -23 5 -41 10 -41 6 0 10 15 10 34 0 19 -4 38 -10 41 -6
4 -10 -10 -10 -34z"/>
<path d="M1297 143 c-8 -15 -6 -73 4 -73 5 0 9 7 9 17 0 15 1 15 18 0 23 -21
30 -15 26 25 -5 39 -14 50 -14 17 l-1 -24 -19 23 c-10 12 -21 19 -23 15z"/>
<path d="M1389 140 c-34 -20 -3 -81 35 -67 20 8 21 37 1 37 -8 0 -14 -4 -12
-9 1 -5 -2 -9 -8 -10 -5 -1 -10 7 -10 17 0 12 7 16 23 15 25 -3 30 12 6 21
-19 7 -15 8 -35 -4z"/>
<path d="M960 80 c0 -5 5 -10 11 -10 5 0 7 5 4 10 -3 6 -8 10 -11 10 -2 0 -4
-4 -4 -10z"/>
</g>
</svg>
