<?xml version="1.0" standalone="no"?>
<!DOCTYPE svg PUBLIC "-//W3C//DTD SVG 20010904//EN"
 "http://www.w3.org/TR/2001/REC-SVG-20010904/DTD/svg10.dtd">
<svg version="1.0" xmlns="http://www.w3.org/2000/svg"
 width="567.000000pt" height="567.000000pt" viewBox="0 0 567.000000 567.000000"
 preserveAspectRatio="xMidYMid meet">
<metadata>
Created by potrace 1.11, written by Peter Selinger 2001-2013
</metadata>
<g transform="translate(0.000000,567.000000) scale(0.100000,-0.100000)"
fill="#000000" stroke="none">
<path d="M3180 5554 c-186 -30 -334 -93 -468 -199 -129 -103 -188 -211 -180
-331 5 -77 37 -129 116 -188 60 -44 76 -81 46 -103 -28 -21 -146 -11 -209 17
-68 31 -171 38 -229 16 -42 -16 -71 -44 -151 -142 -46 -58 -97 -89 -190 -119
-47 -15 -83 -30 -81 -34 3 -4 77 -1 166 7 l162 14 64 -32 c53 -28 75 -33 132
-33 104 0 139 21 291 172 73 72 140 131 149 131 9 1 35 7 57 15 47 17 77 11
199 -37 89 -35 212 -122 297 -209 89 -90 120 -97 138 -32 14 49 -3 128 -37
177 -27 40 -129 119 -242 188 -33 21 -60 41 -60 45 1 4 18 22 40 38 21 17 86
73 143 126 122 111 191 160 285 198 123 51 192 64 294 58 51 -2 102 -8 113
-12 16 -6 15 -3 -5 14 -38 31 -163 90 -220 103 -27 6 -50 16 -50 21 0 14 226
1 314 -18 38 -8 71 -13 73 -11 12 12 -312 123 -437 151 -108 24 -397 29 -520
9z"/>
<path d="M1850 5129 c-52 -24 -86 -53 -107 -92 -25 -49 -7 -57 126 -57 130 0
186 -11 317 -63 146 -56 138 -59 145 53 4 52 12 110 19 128 7 18 10 35 8 37
-2 2 -28 -2 -58 -10 -74 -20 -112 -19 -205 5 -101 26 -187 26 -245 -1z"/>
<path d="M2770 4174 c-78 -12 -146 -27 -155 -34 -5 -4 -29 -14 -52 -20 -23 -7
-54 -26 -68 -41 -25 -29 -34 -69 -15 -69 6 0 10 -6 10 -13 0 -8 16 -22 35 -33
31 -16 38 -17 58 -5 55 35 87 53 87 48 0 -3 -21 -17 -46 -32 -52 -31 -49 -44
15 -52 32 -4 46 -1 63 13 19 17 21 17 15 2 -11 -32 7 -19 72 49 57 62 59 63
19 13 -51 -63 -66 -100 -39 -100 23 0 67 46 50 52 -10 3 -7 14 9 40 37 60 130
89 125 39 -2 -11 2 -21 7 -21 6 0 10 7 10 15 0 8 5 15 12 15 9 0 9 3 0 12 -16
16 -15 38 1 38 6 0 23 -6 37 -13 14 -8 41 -17 60 -20 18 -4 41 -14 50 -22 10
-9 27 -18 39 -20 12 -2 45 -18 72 -35 l50 -31 35 21 c40 25 43 36 12 43 -115
27 -178 46 -197 59 l-22 15 23 6 c12 4 36 0 52 -8 17 -8 55 -19 85 -25 30 -6
62 -17 71 -25 9 -8 20 -15 23 -15 14 0 6 48 -10 63 -28 25 -128 65 -190 77
-69 12 -66 12 -58 0 4 -6 -5 -10 -19 -10 -16 0 -26 6 -26 15 0 12 -14 15 -69
15 -58 0 -70 -3 -74 -17 -4 -17 -5 -17 -6 0 -1 14 -11 17 -63 16 -35 -1 -74
-3 -88 -5z m397 -60 c-3 -3 -12 -4 -19 -1 -8 3 -5 6 6 6 11 1 17 -2 13 -5z
m180 -30 c-3 -3 -12 -4 -19 -1 -8 3 -5 6 6 6 11 1 17 -2 13 -5z"/>
<path d="M2430 4091 c-98 -37 -189 -83 -275 -139 -68 -46 -155 -123 -155 -139
0 -4 14 -9 30 -10 22 -2 33 3 37 15 11 31 56 72 80 72 13 0 23 -5 23 -11 0 -6
16 3 35 20 27 24 45 31 76 31 24 0 62 11 98 29 54 28 57 32 53 60 -4 32 -3 33
67 88 22 17 16 16 -69 -16z"/>
<path d="M3373 4107 c15 -7 24 -16 20 -20 -4 -5 2 -10 14 -13 18 -5 19 -10 13
-38 l-7 -33 96 -47 c90 -45 94 -46 69 -19 -39 41 -37 54 8 41 47 -13 52 -5 18
27 -30 28 -65 40 -89 31 -9 -3 -13 -2 -10 3 7 13 -27 23 -51 16 -12 -4 -10 -1
5 8 24 14 24 15 -30 32 -74 25 -89 28 -56 12z m72 -27 c13 -5 14 -9 5 -9 -8 0
-24 4 -35 9 -13 5 -14 9 -5 9 8 0 24 -4 35 -9z"/>
<path d="M4982 4027 c-6 -7 -11 -61 -11 -127 0 -127 -12 -184 -65 -313 -18
-45 -36 -94 -39 -108 l-7 -26 93 -6 c50 -3 112 -13 136 -21 43 -16 43 -16 39
7 -3 12 -11 50 -19 85 -11 52 -11 70 0 110 33 117 40 170 31 225 -11 71 -29
105 -79 150 -44 39 -62 45 -79 24z"/>
<path d="M246 3958 c-50 -126 -105 -298 -121 -376 -50 -241 -20 -575 70 -769
133 -287 362 -441 537 -361 36 17 68 42 94 73 61 75 72 85 98 85 19 0 27 -8
36 -36 14 -42 8 -81 -31 -195 -54 -160 -29 -256 88 -334 86 -58 127 -113 159
-215 16 -49 33 -90 38 -90 5 0 6 35 2 83 -21 255 -21 250 9 301 37 63 45 160
20 235 -14 44 -37 72 -154 189 -132 131 -138 140 -151 195 -16 70 -6 123 44
232 41 89 105 175 203 273 100 100 97 143 -9 142 -118 -2 -198 -70 -323 -275
-35 -57 -65 -83 -65 -57 0 5 -55 67 -121 138 -169 179 -211 243 -265 404 -24
72 -29 100 -28 180 1 52 6 107 12 123 21 50 -3 28 -43 -39 -21 -37 -51 -103
-67 -148 l-29 -81 5 150 c2 83 10 167 16 188 21 69 5 59 -24 -15z"/>
<path d="M3174 4001 c5 -7 19 -16 32 -21 13 -5 24 -16 24 -25 0 -9 9 -15 21
-15 16 0 19 3 11 13 -15 18 -97 63 -88 48z"/>
<path d="M2940 3974 c0 -8 5 -12 10 -9 6 3 10 10 10 16 0 5 -4 9 -10 9 -5 0
-10 -7 -10 -16z"/>
<path d="M3368 3962 c-21 -15 -37 -29 -38 -32 0 -3 30 -28 66 -55 37 -28 114
-100 173 -162 l107 -111 54 29 c29 16 56 31 58 34 3 2 -12 28 -32 57 -20 29
-36 58 -36 64 0 23 -81 86 -185 143 -60 34 -114 61 -120 60 -5 0 -27 -13 -47
-27z"/>
<path d="M2376 3947 c-33 -18 -59 -35 -58 -39 1 -5 2 -21 2 -36 0 -20 7 -33
25 -42 31 -16 52 -8 128 51 l55 43 -44 28 c-25 15 -46 28 -47 28 -1 0 -29 -15
-61 -33z"/>
<path d="M2898 3920 c-16 -29 -16 -30 2 -30 16 0 20 7 20 30 0 17 -1 30 -2 30
-2 0 -11 -14 -20 -30z"/>
<path d="M3700 3936 c0 -2 8 -10 18 -17 15 -13 16 -12 3 4 -13 16 -21 21 -21
13z"/>
<path d="M4454 3858 c21 -256 21 -251 -9 -302 -37 -63 -45 -160 -20 -235 14
-44 37 -72 154 -189 132 -131 138 -140 151 -195 16 -70 6 -123 -44 -232 -41
-89 -105 -175 -203 -273 -100 -100 -97 -143 9 -142 118 2 198 70 323 275 35
57 65 83 65 57 0 -5 55 -67 121 -138 169 -179 211 -243 265 -404 24 -72 29
-100 28 -180 -1 -52 -6 -107 -12 -122 -21 -51 3 -29 43 38 21 37 51 103 67
148 l29 81 -5 -150 c-2 -82 -10 -167 -16 -188 -21 -69 -5 -59 24 15 99 249
134 392 143 577 10 212 -24 421 -92 568 -133 287 -362 441 -537 361 -36 -17
-68 -42 -94 -73 -61 -75 -72 -85 -98 -85 -19 0 -27 8 -36 36 -14 42 -8 81 31
195 55 164 28 258 -98 342 -78 52 -117 106 -150 210 -15 47 -32 87 -37 87 -5
0 -6 -35 -2 -82z"/>
<path d="M2948 3923 c7 -3 16 -2 19 1 4 3 -2 6 -13 5 -11 0 -14 -3 -6 -6z"/>
<path d="M3321 3868 c40 -51 41 -54 37 -117 -4 -55 -8 -67 -32 -88 l-28 -24
23 -55 c13 -31 30 -59 37 -61 17 -7 117 14 215 44 l78 24 -32 40 c-18 22 -35
37 -38 32 -3 -4 -16 -13 -27 -20 -19 -10 -29 -8 -68 17 -35 23 -46 36 -46 55
0 16 4 24 11 20 6 -4 28 -8 49 -9 l39 -1 -32 33 c-54 57 -190 162 -209 162
-15 0 -10 -10 23 -52z"/>
<path d="M2635 3881 c-16 -3 -25 -9 -20 -13 6 -3 24 0 40 7 33 15 27 16 -20 6z"/>
<path d="M2706 3846 c-8 -20 -20 -36 -25 -36 -6 0 -11 -4 -11 -9 0 -5 8 -8 18
-7 12 1 18 -8 20 -28 l4 -29 17 39 c21 46 62 86 68 67 3 -7 13 -13 24 -13 10
0 19 -5 19 -11 0 -6 7 -9 15 -5 9 3 23 -3 32 -14 26 -30 33 -25 33 25 0 41 -2
45 -25 45 -14 0 -34 -5 -45 -12 -15 -9 -27 -10 -52 -1 -77 27 -76 27 -92 -11z"/>
<path d="M2940 3832 c0 -80 12 -131 32 -138 10 -3 26 -16 34 -30 15 -22 15
-26 0 -49 -9 -13 -22 -22 -29 -20 -9 4 -12 -11 -13 -55 l-1 -60 62 0 c34 0 82
3 107 6 l45 6 -21 57 c-12 31 -30 69 -40 84 -16 23 -17 32 -7 53 16 36 14 51
-10 57 -16 4 -19 11 -14 26 4 15 3 19 -7 16 -8 -3 -21 10 -33 37 -18 40 -23
43 -62 46 l-43 3 0 -39z"/>
<path d="M2441 3837 c-26 -28 -22 -43 24 -92 39 -41 57 -30 24 16 -16 23 -19
33 -10 42 19 19 13 36 -11 29 -21 -5 -22 -4 -9 11 20 25 8 20 -18 -6z"/>
<path d="M2625 3819 c-4 -6 -5 -13 -2 -16 7 -7 27 6 27 18 0 12 -17 12 -25 -2z"/>
<path d="M1891 3722 c-75 -82 -127 -152 -114 -152 20 1 102 71 97 84 -3 7 18
41 46 75 29 35 50 65 47 67 -3 3 -37 -31 -76 -74z"/>
<path d="M2602 3759 c-8 -12 -19 -18 -28 -15 -8 3 -14 -1 -14 -9 0 -24 36 -17
54 10 18 27 20 35 8 35 -4 0 -13 -9 -20 -21z"/>
<path d="M3837 3759 c7 -7 15 -10 18 -7 3 3 -2 9 -12 12 -14 6 -15 5 -6 -5z"/>
<path d="M2637 3747 c-11 -29 -9 -43 4 -30 6 6 9 19 7 29 -3 18 -4 18 -11 1z"/>
<path d="M3890 3731 c0 -6 23 -40 50 -76 28 -36 50 -60 50 -52 0 14 -86 137
-96 137 -2 0 -4 -4 -4 -9z"/>
<path d="M2780 3683 c-13 -41 -19 -48 -47 -54 -38 -7 -69 -27 -136 -83 -46
-38 -47 -41 -25 -47 13 -3 56 -9 96 -13 71 -7 72 -7 82 19 5 14 16 28 24 31
16 6 116 -34 116 -47 0 -5 7 -9 15 -9 8 0 15 4 15 9 0 11 -67 71 -80 71 -5 0
-20 4 -34 10 -33 12 -26 31 24 59 52 29 53 63 3 90 -33 17 -37 15 -53 -36z
m-36 -110 c10 -25 -3 -33 -50 -33 -52 0 -56 13 -13 39 34 21 54 19 63 -6z"/>
<path d="M3797 3629 c-16 -10 -15 -13 13 -49 17 -22 53 -57 80 -77 29 -23 51
-49 55 -65 4 -16 10 -28 15 -28 4 0 4 18 -1 41 -5 22 -8 47 -7 54 4 17 -44 94
-58 95 -6 0 -23 9 -37 20 -29 23 -35 24 -60 9z"/>
<path d="M1941 3589 c-12 -16 -33 -34 -46 -39 -25 -9 -117 -143 -162 -235
l-28 -57 40 -35 c22 -19 52 -41 66 -48 l25 -14 59 132 c33 73 59 136 57 140
-1 4 3 18 10 30 6 12 16 52 23 89 10 61 10 68 -5 68 -9 0 -26 -14 -39 -31z"/>
<path d="M3733 3593 c-18 -9 -33 -20 -33 -23 0 -4 21 -40 48 -80 42 -66 47
-70 50 -47 4 34 29 35 44 2 12 -26 28 -25 28 3 -1 9 -15 26 -33 37 -35 22 -78
91 -70 112 6 16 6 16 -34 -4z"/>
<path d="M1819 3560 c-24 -16 -52 -30 -61 -30 -22 0 -79 -100 -85 -150 -3 -22
0 -53 7 -70 l13 -31 44 78 c24 42 59 98 78 125 19 26 35 57 35 68 0 10 8 24
18 29 9 6 12 11 6 11 -6 0 -31 -13 -55 -30z"/>
<path d="M3290 3553 c0 -32 4 -43 15 -43 19 0 19 9 0 51 l-14 34 -1 -42z"/>
<path d="M3950 3586 c0 -2 7 -9 15 -16 9 -7 15 -8 15 -2 0 5 -7 12 -15 16 -8
3 -15 4 -15 2z"/>
<path d="M3602 3540 c-30 -11 -91 -27 -135 -36 -45 -10 -86 -20 -90 -24 -4 -4
10 -59 32 -123 22 -64 52 -166 67 -227 23 -97 29 -110 48 -110 30 0 218 46
308 76 l77 25 -35 82 c-62 146 -187 358 -209 356 -5 0 -34 -9 -63 -19z"/>
<path d="M3308 3473 c-10 -2 -18 -8 -18 -11 0 -4 -48 -8 -108 -9 -59 -1 -130
-5 -159 -8 l-51 -6 19 -42 c10 -23 19 -49 19 -58 0 -25 38 -67 62 -71 24 -3
35 -30 37 -90 1 -22 10 -47 24 -65 31 -37 38 -58 24 -72 -17 -17 -42 -13 -62
9 -14 15 -22 17 -36 9 -44 -23 -43 20 2 83 26 36 20 44 -20 24 -16 -9 -36 -16
-43 -16 -7 0 -19 -12 -25 -27 -15 -32 -17 -83 -3 -83 6 0 10 -7 10 -15 0 -8
-4 -15 -10 -15 -5 0 -10 -10 -10 -22 0 -21 1 -21 163 -14 151 6 330 26 341 37
15 14 -114 471 -132 468 -4 -1 -15 -3 -24 -6z"/>
<path d="M2510 3444 c-10 -25 -7 -31 26 -65 20 -21 49 -39 63 -41 19 -2 27 -9
29 -28 1 -14 5 -36 8 -50 6 -25 6 -24 20 9 8 18 14 44 14 57 0 17 6 24 19 24
14 0 21 10 25 36 4 19 9 41 12 48 4 10 -16 15 -78 20 -46 4 -93 10 -105 13
-18 4 -25 -1 -33 -23z"/>
<path d="M2890 3430 c0 -5 7 -10 15 -10 8 0 15 5 15 10 0 6 -7 10 -15 10 -8 0
-15 -4 -15 -10z"/>
<path d="M3860 3385 c-7 -9 -19 -14 -27 -11 -8 3 -2 -17 15 -52 16 -31 41 -87
57 -124 l27 -67 54 27 c30 14 54 32 54 39 0 21 -53 69 -72 65 -25 -5 -30 13
-14 59 8 24 14 45 12 47 -2 1 -18 -9 -35 -23 l-31 -27 0 30 c0 38 -22 58 -40
37z"/>
<path d="M1626 3290 c-36 -89 -67 -237 -73 -341 -5 -96 1 -188 13 -176 2 2 9
44 15 93 11 100 49 260 78 327 19 44 19 47 2 92 l-18 47 -17 -42z"/>
<path d="M1651 3118 c-40 -129 -61 -242 -61 -323 0 -62 1 -64 43 -100 43 -37
197 -122 197 -108 0 5 -7 31 -16 58 -13 44 -25 132 -41 300 -3 38 2 67 21 117
l25 67 -49 31 c-27 17 -54 38 -60 46 -7 7 -16 14 -20 14 -3 0 -21 -46 -39
-102z"/>
<path d="M4127 3202 c-16 -18 -18 -31 -12 -110 7 -88 7 -89 -20 -110 -56 -44
-90 -24 -115 71 -7 26 -17 47 -21 47 -12 0 -11 -10 7 -63 8 -25 23 -85 33
-133 l18 -88 19 64 c16 53 24 66 42 68 13 2 27 14 32 27 5 12 22 33 39 45 17
12 38 34 46 50 26 49 15 150 -16 150 -5 0 -3 -13 6 -30 18 -35 21 -70 4 -53
-7 7 -19 28 -28 48 -16 37 -16 37 -34 17z"/>
<path d="M3805 3049 c-49 -16 -136 -39 -193 -51 -96 -20 -103 -23 -98 -43 12
-47 36 -228 46 -350 6 -71 13 -131 14 -133 6 -5 243 48 310 71 67 23 68 23 88
77 31 83 32 114 4 250 -30 149 -48 204 -67 207 -8 0 -54 -12 -104 -28z"/>
<path d="M2835 2985 c-29 -13 -29 -13 25 -17 64 -5 67 -4 47 17 -18 18 -32 18
-72 0z"/>
<path d="M3385 2958 c-33 -5 -141 -14 -240 -21 l-180 -12 4 -255 c2 -140 4
-256 5 -257 9 -11 542 39 555 53 8 7 -16 278 -35 397 -13 86 -20 107 -33 106
-9 -1 -43 -6 -76 -11z"/>
<path d="M2788 2912 c-3 -10 -22 -22 -50 -29 -40 -11 -47 -17 -61 -55 -23 -58
-89 -134 -124 -141 -16 -3 -41 -16 -57 -28 -26 -20 -28 -26 -21 -63 8 -43 9
-126 1 -133 -11 -11 -49 21 -62 52 -8 19 -24 44 -36 55 l-23 21 -6 -28 c-8
-32 -11 -113 -5 -113 2 0 64 -6 138 -14 73 -8 204 -18 291 -22 l157 -6 0 139
c0 77 -3 195 -7 261 l-6 122 -62 0 c-51 0 -64 -3 -67 -18z"/>
<path d="M1555 2685 c9 -103 45 -251 57 -234 7 10 8 5 3 -14 -4 -20 -2 -27 6
-22 8 5 9 1 4 -15 -5 -16 -4 -20 5 -15 7 4 10 2 9 -6 -1 -8 1 -23 5 -34 44
-119 91 -172 205 -229 l70 -36 -20 58 c-26 76 -56 228 -64 327 l-7 80 -67 32
c-36 17 -91 51 -120 74 l-54 43 6 -84 c4 -47 9 -98 12 -115 l5 -30 -10 30 c-5
16 -14 75 -20 130 -13 117 -35 169 -25 60z"/>
<path d="M1873 2600 c4 -14 7 -28 7 -31 0 -4 7 -9 15 -13 13 -5 13 -1 -1 27
-22 42 -28 48 -21 17z"/>
<path d="M2122 2598 c-6 -7 -12 -33 -13 -58 l-4 -44 85 -18 c124 -25 117 -28
119 46 2 60 1 64 -18 59 -11 -3 -41 2 -67 11 -57 19 -88 20 -102 4z"/>
<path d="M1860 2488 c0 -111 65 -402 93 -420 30 -20 343 -98 391 -98 11 0 11
10 0 68 -19 93 -28 108 -77 140 -23 15 -59 39 -78 55 -20 15 -67 42 -105 61
-100 49 -154 113 -154 180 0 26 -13 40 -47 50 -21 7 -23 4 -23 -36z"/>
<path d="M3875 2503 c-22 -8 -98 -27 -170 -42 l-130 -27 -7 -120 c-5 -65 -15
-166 -23 -223 -8 -58 -13 -106 -10 -109 7 -7 245 49 324 77 69 24 76 29 90 64
13 35 13 41 -5 70 -21 36 -25 140 -11 260 10 75 9 76 -58 50z"/>
<path d="M2104 2428 c13 -67 63 -90 83 -38 12 33 30 37 83 19 30 -11 32 -14
26 -48 -3 -20 -9 -46 -12 -57 -4 -14 0 -23 10 -27 14 -5 16 4 16 68 l0 74 -57
11 c-32 6 -77 15 -100 20 -57 14 -56 14 -49 -22z"/>
<path d="M3444 2415 c-113 -18 -308 -35 -398 -35 l-76 0 0 -156 0 -156 37 -34
c31 -29 44 -34 80 -32 44 1 77 -18 88 -51 4 -15 15 -16 88 -9 100 9 219 27
226 34 17 16 56 458 40 453 -2 -1 -40 -7 -85 -14z"/>
<path d="M2346 2339 c6 -57 12 -76 32 -96 21 -21 24 -31 19 -68 -8 -55 6 -70
52 -52 30 11 34 10 51 -10 l18 -23 52 35 c51 34 93 44 105 25 3 -5 19 -7 35
-3 22 4 37 -1 60 -21 22 -18 43 -26 70 -26 21 0 50 -4 64 -10 l26 -10 0 149 0
149 -182 4 c-101 3 -184 4 -185 3 -1 0 16 -13 39 -28 24 -15 56 -27 74 -27 37
0 91 -40 80 -58 -9 -15 -107 -16 -140 -1 -21 10 -23 15 -15 30 8 16 6 19 -18
19 -31 0 -107 32 -117 49 -4 6 -32 11 -63 11 -45 0 -54 3 -49 15 3 8 1 15 -4
15 -6 0 -8 -27 -4 -71z m213 -45 c2 -2 1 -11 -3 -20 -5 -12 -13 -14 -34 -9
-33 8 -46 20 -38 34 6 9 63 5 75 -5z m286 -24 c0 -18 -52 -27 -67 -12 -17 17
2 33 35 30 20 -2 32 -8 32 -18z"/>
<path d="M542 2247 c3 -12 11 -50 19 -85 11 -52 11 -70 0 -110 -33 -117 -40
-170 -31 -225 11 -71 29 -105 79 -150 75 -67 90 -50 90 103 0 127 12 184 65
313 18 45 36 94 39 108 l7 26 -93 6 c-50 3 -112 13 -136 21 -43 16 -43 16 -39
-7z"/>
<path d="M4165 2239 c-4 -6 -13 -8 -21 -5 -8 3 -30 -12 -51 -35 -21 -22 -56
-46 -78 -53 -22 -8 -42 -22 -43 -31 -3 -13 6 -12 50 11 73 37 136 81 148 104
11 21 6 28 -5 9z"/>
<path d="M1740 2143 c76 -137 258 -332 362 -388 l53 -28 -47 51 c-49 52 -119
156 -157 229 -18 35 -34 49 -91 78 -38 19 -86 49 -106 67 l-38 33 24 -42z"/>
<path d="M4103 2148 c-16 -13 -57 -36 -89 -51 -57 -27 -61 -32 -103 -114 -24
-47 -71 -119 -103 -160 l-59 -74 38 20 c98 50 265 226 323 342 17 32 29 59 27
59 -2 0 -17 -10 -34 -22z"/>
<path d="M2372 2068 c4 -8 9 -36 13 -61 7 -42 9 -45 43 -51 21 -3 44 -6 53 -6
23 0 30 37 15 75 -11 26 -21 33 -52 38 -22 3 -48 9 -58 13 -15 6 -18 4 -14 -8z"/>
<path d="M3820 2020 c-47 -16 -133 -39 -192 -51 l-108 -22 -25 -83 c-14 -46
-41 -113 -59 -149 -29 -54 -32 -65 -18 -65 22 0 175 37 233 56 74 24 168 133
243 281 14 29 26 55 26 58 0 7 -7 6 -100 -25z"/>
<path d="M1965 2021 c18 -50 109 -184 164 -243 54 -58 72 -71 125 -87 76 -23
226 -54 232 -48 3 3 -8 27 -25 53 -16 27 -44 92 -62 144 l-33 96 -130 27 c-72
14 -164 37 -204 50 -61 20 -72 21 -67 8z"/>
<path d="M3360 1924 c-47 -7 -105 -13 -130 -14 -83 -2 -16 -22 93 -27 56 -3
110 -10 120 -15 14 -7 19 -3 27 17 23 60 24 60 -110 39z"/>
<path d="M2420 1873 c26 -85 56 -158 84 -202 27 -42 36 -45 176 -55 l75 -6
-51 24 c-29 14 -58 33 -65 44 -8 10 -34 29 -58 41 -36 19 -42 26 -38 47 3 16
-1 25 -13 29 -19 6 -50 71 -50 104 0 18 -25 31 -62 31 -15 0 -15 -4 2 -57z"/>
<path d="M3705 1713 c-16 -10 -34 -18 -40 -19 -5 -1 -49 -14 -97 -28 -48 -14
-110 -28 -138 -32 -38 -5 -56 -13 -71 -33 -11 -14 -36 -38 -56 -53 -20 -16
-31 -28 -25 -28 35 0 236 75 297 111 39 23 75 42 80 43 13 2 85 46 85 52 0 6
-1 5 -35 -13z"/>
<path d="M2165 1705 c30 -25 59 -39 51 -26 -4 6 -22 18 -39 27 -30 14 -31 14
-12 -1z"/>
<path d="M3349 1679 c-44 -44 -45 -53 -5 -43 18 4 34 20 47 45 25 50 10 50
-42 -2z"/>
<path d="M2245 1663 c62 -49 368 -165 394 -149 4 3 25 -1 47 -8 21 -8 60 -16
86 -18 41 -5 46 -3 43 13 -2 9 -11 29 -20 43 -9 14 -16 29 -15 33 1 8 -43 15
-170 27 l-65 6 48 -45 c27 -25 45 -45 39 -45 -14 0 -99 67 -105 82 -3 8 -37
19 -83 27 -44 7 -106 22 -139 32 -73 23 -86 23 -60 2z"/>
<path d="M3305 1611 c-11 -3 -33 -13 -50 -22 -16 -9 -41 -20 -55 -24 -13 -4
-37 -17 -51 -28 -15 -11 -51 -28 -81 -39 l-53 -19 65 7 c36 3 83 10 105 16 22
5 45 10 50 11 6 0 35 25 65 54 52 49 53 60 5 44z"/>
<path d="M2391 1214 c-13 -48 2 -128 34 -175 32 -50 97 -102 208 -171 51 -31
92 -61 92 -66 0 -10 -215 -208 -299 -274 -63 -50 -190 -111 -286 -137 -80 -23
-179 -27 -249 -10 -24 5 -46 8 -48 5 -9 -9 134 -82 212 -108 60 -20 75 -29 61
-34 -23 -9 -275 12 -329 27 -83 23 -42 -1 85 -49 263 -100 425 -129 658 -119
299 13 501 87 675 249 97 91 137 166 142 268 4 69 2 79 -26 127 -18 30 -54 69
-88 95 -91 69 -82 118 24 118 19 0 75 -14 125 -31 164 -57 274 -37 345 62 87
121 123 146 263 191 73 22 74 23 36 26 -22 2 -84 -1 -138 -7 -135 -15 -193
-14 -207 3 -19 23 -100 46 -161 46 -104 0 -135 -18 -282 -164 -124 -124 -137
-135 -193 -151 -50 -14 -68 -15 -109 -6 -128 29 -303 139 -431 270 -63 65 -99
70 -114 15z"/>
<path d="M3550 724 c0 -44 -7 -101 -15 -128 -8 -27 -15 -53 -15 -57 0 -4 24
-1 53 7 68 18 142 18 203 -1 79 -24 182 -29 232 -11 81 29 151 101 136 140 -5
13 -25 16 -113 16 -127 0 -206 16 -325 64 -49 20 -104 38 -123 42 l-33 6 0
-78z"/>
</g>
</svg>
